<svg width="171" height="131" viewBox="0 0 171 131" fill="none" xmlns="http://www.w3.org/2000/svg">
<path d="M91.9449 63.1711C91.9449 63.1711 77.1674 56.2251 75.8832 46.6673C74.5991 37.1096 75.5011 27.9761 82.8644 25.42C82.8644 25.42 87.5219 10.6994 104.032 16.6149C120.542 22.5304 117.938 40.2921 126.963 42.4189C135.987 44.5456 152.839 35.589 156.054 46.5158C159.269 57.4426 148.696 56.7757 141.669 66.0506C134.642 75.3255 145.496 80.1953 143.508 86.5806C141.521 92.9659 134.015 97.3558 134.015 97.3558L91.9449 63.1711Z" fill="url(#paint0_linear)"/>
<path d="M71.71 84.1357L75.8833 95.3857H76.3369L82.8645 66.0507C78.742 69.6323 71.71 84.1357 71.71 84.1357Z" fill="url(#paint1_linear)"/>
<path d="M64.3821 99.6544L61.7374 100.973C58.4558 102.923 53.5537 102.367 53.5537 102.367C56.2035 105.322 71.1237 108.667 75.3175 108.581L76.092 98.1136H66.7975L64.3821 99.6544Z" fill="url(#paint2_linear)"/>
<path d="M133.679 124.468L133.577 124.519L133.226 124.685C132.935 124.827 132.65 124.958 132.354 125.09C130.51 125.928 128.617 126.681 126.678 127.348C125.577 127.728 124.464 128.08 123.34 128.403L121.995 128.772C107.027 132.724 91.1355 131.353 77.0811 124.898C76.5053 124.63 75.9295 124.357 75.3639 124.074L74.3447 123.569C74.4874 119.235 74.7065 114.047 75.0275 108.576C75.2314 105.156 75.4811 101.625 75.7766 98.1187C75.8531 97.2043 75.9346 96.295 76.0161 95.3857C77.2187 82.4636 79.1449 70.481 82.2329 66.672L82.2787 66.6215C82.6708 66.0866 83.2239 65.6887 83.8584 65.4849C88.3172 64.4341 91.4612 64.0805 91.9555 63.1712C92.4498 62.2619 91.9555 60.4736 91.9555 60.4736L92.8421 60.3524C94.1314 60.1604 96.6333 59.7563 99.0029 59.1501C99.0178 59.1547 99.0338 59.1547 99.0487 59.1501C101.143 58.6096 103.125 57.9124 104.093 57.0739L106.081 62.3124C106.081 62.3124 121.026 60.4383 126.861 66.0709C126.897 66.0971 126.929 66.1277 126.958 66.1618C127.019 66.2169 127.077 66.276 127.131 66.3386C127.478 66.7025 127.787 67.1003 128.053 67.5258C129.954 70.5568 131.299 82.7212 132.232 95.9162C132.446 98.9472 132.64 102.079 132.808 105.146C133.195 112.228 133.485 119.088 133.679 124.468Z" fill="url(#paint3_linear)"/>
<path opacity="0.15" d="M133.577 124.534L133.226 124.701C132.935 124.842 132.65 124.973 132.355 125.105C130.51 125.943 128.618 126.696 126.678 127.363C125.577 127.743 124.465 128.095 123.34 128.419C116.456 121.149 113.725 111.713 113.725 111.713L132.798 105.146L133.577 124.534Z" fill="black"/>
<path d="M126.856 66.0507C133.76 72.7694 135.263 86.8737 133.99 97.371C132.716 107.868 130.351 117.699 125.439 117.396C120.527 117.093 103.527 105.403 96.959 99.028L100.796 91.7283L114.677 97.462V82.1807L126.856 66.0507Z" fill="url(#paint4_linear)"/>
<path d="M126.856 66.0507C133.76 72.7694 135.263 86.8737 133.99 97.371C132.716 107.868 130.351 117.699 125.439 117.396C120.527 117.093 103.527 105.403 96.959 99.028L100.796 91.7283L114.677 97.462V82.1807L126.856 66.0507Z" fill="url(#paint5_linear)"/>
<g filter="url(#filter0_d)">
<path d="M91.1453 95.3856H27.4541V98.1186H91.1453V95.3856Z" fill="url(#paint6_linear)"/>
<path d="M63.4347 61.8425H15L27.4539 95.3856H75.8835L63.4347 61.8425Z" fill="url(#paint7_linear)"/>
</g>
<path d="M41.9971 98.1187C41.9971 98.1187 50.354 102.266 55.6638 102.367C60.9735 102.468 66.803 98.1187 66.803 98.1187H41.9971Z" fill="url(#paint8_linear)"/>
<path d="M100.796 91.7283C100.796 91.7283 93.4483 88.0507 90.2839 87.6465C87.1194 87.2424 77.2949 95.3857 77.2949 95.3857H91.1552L96.9745 99.0279L100.796 91.7283Z" fill="url(#paint9_linear)"/>
<path d="M103.471 48.789C103.508 51.5552 103.712 54.3167 104.083 57.0586C100.796 58.8924 96.9488 59.8775 92.8315 60.3574L92.592 57.0586L92.4493 55.038V54.9723C91.6556 54.9546 90.8732 54.783 90.1461 54.4671C85.1726 52.3404 84.1025 41.944 84.1025 41.944C86.095 41.8632 88.6887 38.3018 88.6887 38.3018C90.141 40.5043 96.8775 44.7578 100.786 43.6161C104.694 42.4744 104.389 39.7415 104.389 39.7415C105.095 40.037 105.707 40.5193 106.156 41.1357C106.605 41.7522 106.875 42.4791 106.936 43.2372C107.145 45.9045 103.471 48.789 103.471 48.789Z" fill="url(#paint10_linear)"/>
<path opacity="0.15" d="M100.134 51.7241C99.212 53.2699 95.0386 55.7301 92.5978 57.0688L92.4551 55.0481C92.6079 55.0481 92.7557 54.9976 92.8984 54.9673C94.8911 54.6177 96.8038 53.9143 98.5444 52.8911C98.5652 52.883 98.5843 52.871 98.6005 52.8557C99.1236 52.5491 99.6136 52.1903 100.063 51.7847L100.134 51.7241Z" fill="black"/>
<path opacity="0.15" d="M108.949 95.1029L119.762 99.4877L114.667 95.8455V82.2059C114.667 82.2059 113.072 94.0572 108.949 95.1029Z" fill="black"/>
<defs>
<filter id="filter0_d" x="0" y="46.8425" width="116.145" height="76.2761" filterUnits="userSpaceOnUse" color-interpolation-filters="sRGB">
<feFlood flood-opacity="0" result="BackgroundImageFix"/>
<feColorMatrix in="SourceAlpha" type="matrix" values="0 0 0 0 0 0 0 0 0 0 0 0 0 0 0 0 0 0 127 0" result="hardAlpha"/>
<feOffset dx="5" dy="5"/>
<feGaussianBlur stdDeviation="10"/>
<feColorMatrix type="matrix" values="0 0 0 0 0 0 0 0 0 0 0 0 0 0 0 0 0 0 0.2 0"/>
<feBlend mode="normal" in2="BackgroundImageFix" result="effect1_dropShadow"/>
<feBlend mode="normal" in="SourceGraphic" in2="effect1_dropShadow" result="shape"/>
</filter>
<linearGradient id="paint0_linear" x1="75.3992" y1="56.2807" x2="156.655" y2="56.2807" gradientUnits="userSpaceOnUse">
<stop stop-color="#EF9A9A"/>
<stop offset="1" stop-color="#D81B60"/>
</linearGradient>
<linearGradient id="paint1_linear" x1="76.6834" y1="81.8826" x2="74.2742" y2="109.514" gradientUnits="userSpaceOnUse">
<stop stop-color="#7E57C2"/>
<stop offset="1" stop-color="#4527A0"/>
</linearGradient>
<linearGradient id="paint2_linear" x1="6813.02" y1="2526.43" x2="6789.49" y2="3102.43" gradientUnits="userSpaceOnUse">
<stop stop-color="#7E57C2"/>
<stop offset="1" stop-color="#4527A0"/>
</linearGradient>
<linearGradient id="paint3_linear" x1="20341.2" y1="14857" x2="24468.7" y2="22491.9" gradientUnits="userSpaceOnUse">
<stop stop-color="#7E57C2"/>
<stop offset="1" stop-color="#4527A0"/>
</linearGradient>
<linearGradient id="paint4_linear" x1="13960.4" y1="9769.53" x2="17624.5" y2="15925.1" gradientUnits="userSpaceOnUse">
<stop stop-color="#7E57C2"/>
<stop offset="1" stop-color="#4527A0"/>
</linearGradient>
<linearGradient id="paint5_linear" x1="118.758" y1="71.7489" x2="113.038" y2="118.812" gradientUnits="userSpaceOnUse">
<stop offset="0.14" stop-color="#7E57C2" stop-opacity="0"/>
<stop offset="0.26" stop-color="#724DBB" stop-opacity="0.21"/>
<stop offset="0.48" stop-color="#5F3DAF" stop-opacity="0.55"/>
<stop offset="0.66" stop-color="#5131A7" stop-opacity="0.79"/>
<stop offset="0.81" stop-color="#482AA2" stop-opacity="0.94"/>
<stop offset="0.91" stop-color="#4527A0"/>
</linearGradient>
<linearGradient id="paint6_linear" x1="27.4541" y1="96.7496" x2="91.1454" y2="96.7496" gradientUnits="userSpaceOnUse">
<stop stop-color="#D2D4D5"/>
<stop offset="1" stop-color="#AAACAE"/>
</linearGradient>
<linearGradient id="paint7_linear" x1="537.989" y1="4197.71" x2="4142.02" y2="8331.05" gradientUnits="userSpaceOnUse">
<stop stop-color="#D2D4D5"/>
<stop offset="1" stop-color="#AAACAE"/>
</linearGradient>
<linearGradient id="paint8_linear" x1="43.5767" y1="93.557" x2="63.884" y2="102.338" gradientUnits="userSpaceOnUse">
<stop stop-color="#FFF8E1"/>
<stop offset="1" stop-color="#FFCC80"/>
</linearGradient>
<linearGradient id="paint9_linear" x1="7875.06" y1="2940.73" x2="8393.29" y2="3508.97" gradientUnits="userSpaceOnUse">
<stop stop-color="#FFF8E1"/>
<stop offset="1" stop-color="#FFCC80"/>
</linearGradient>
<linearGradient id="paint10_linear" x1="8044.47" y1="3226.22" x2="8499.41" y2="4087.69" gradientUnits="userSpaceOnUse">
<stop stop-color="#FFF8E1"/>
<stop offset="1" stop-color="#FFCC80"/>
</linearGradient>
</defs>
</svg>
